<?xml version="1.0" standalone="no"?>
<!DOCTYPE svg PUBLIC "-//W3C//DTD SVG 20010904//EN"
 "http://www.w3.org/TR/2001/REC-SVG-20010904/DTD/svg10.dtd">
<svg version="1.0" xmlns="http://www.w3.org/2000/svg"
 width="515.000000pt" height="514.000000pt" viewBox="0 0 515.000000 514.000000"
 preserveAspectRatio="xMidYMid meet">

<g transform="translate(0.000000,514.000000) scale(0.100000,-0.100000)"
fill="#000000" stroke="none">
<path d="M2230 5129 c-738 -82 -1377 -474 -1792 -1099 -209 -315 -349 -680
-409 -1071 -33 -207 -33 -571 0 -778 44 -286 120 -529 246 -786 432 -882 1324
-1429 2270 -1391 351 13 649 88 960 241 436 213 801 551 1051 974 50 86 50 86
147 138 158 85 436 282 437 311 0 23 -21 12 -93 -46 -115 -94 -391 -272 -402
-260 -3 2 19 56 47 119 106 238 183 517 213 778 19 161 19 461 0 622 -69 588
-329 1132 -741 1544 -369 369 -841 609 -1359 690 -121 19 -458 27 -575 14z
m600 -39 c626 -104 1171 -437 1556 -952 279 -373 453 -818 504 -1290 22 -208
11 -531 -26 -738 -41 -230 -115 -461 -210 -660 l-56 -117 -111 -47 c-200 -85
-414 -141 -637 -167 -165 -19 -473 -7 -640 25 -241 45 -455 120 -672 234 -98
51 -131 61 -114 33 19 -31 272 -149 450 -210 397 -137 848 -160 1251 -64 117
27 296 86 389 127 31 14 56 23 56 20 0 -12 -121 -197 -184 -282 -236 -316
-543 -572 -884 -738 -810 -396 -1748 -303 -2477 245 -190 143 -420 386 -554
585 -226 335 -366 701 -427 1121 -25 167 -25 543 0 710 89 604 340 1105 758
1511 393 381 900 620 1433 674 144 14 451 4 595 -20z"/>
<path d="M3202 3375 c-34 -24 -70 -94 -93 -181 -30 -108 -33 -381 -6 -494 25
-107 64 -180 109 -205 l37 -20 28 21 c66 49 104 146 124 315 32 282 -51 579
-163 579 -8 0 -23 -7 -36 -15z"/>
<path d="M4101 3352 c-73 -77 -106 -235 -98 -467 7 -202 45 -331 113 -384 34
-26 54 -26 88 0 68 53 106 182 113 384 8 230 -25 391 -97 467 -47 49 -73 49
-119 0z"/>
</g>
</svg>
